<?xml version="1.0" encoding="UTF-8" standalone="no"?> <!-- Created with Vectornator for iOS (http://vectornator.io/) --><!DOCTYPE svg PUBLIC "-//W3C//DTD SVG 1.1//EN" "http://www.w3.org/Graphics/SVG/1.1/DTD/svg11.dtd">
<svg version="1.1" viewBox="0 0 519.283 457.638" width="100%" height="100%" xmlns="http://www.w3.org/2000/svg" xml:space="preserve" xmlns:xlink="http://www.w3.org/1999/xlink" style="fill-rule:nonzero;clip-rule:evenodd;stroke-linecap:round;stroke-linejoin:round;" xmlns:vectornator="http://vectornator.io">
<metadata>
<vectornator:setting value="false" key="WDDynamicGuides"/>
<vectornator:setting key="VNDimensionsVisible" value="true"/>
<vectornator:setting value="true" key="VNSnapToGuides"/>
<vectornator:setting key="WDIsolateActiveLayer" value="false"/>
<vectornator:setting key="UndoHistoryDisabled" value="true"/>
<vectornator:setting value="false" key="IsTimeLapseWatermarkDisabled"/>
<vectornator:setting value="false" key="WDSnapToPoints"/>
<vectornator:setting key="WDOutlineMode" value="false"/>
<vectornator:setting key="WDSnapToGrid" value="false"/>
<vectornator:setting value="false" key="WDSnapToEdges"/>
<vectornator:setting key="WDDisplayWhiteBackground" value="false"/>
<vectornator:setting key="WDUnits" value="Pixels"/>
<vectornator:setting value="true" key="WDRulersVisible"/>
<vectornator:setting key="WDGuidesVisible" value="true"/>
<vectornator:setting value="false" key="WDCMYKEnabledKey"/>
</metadata>
<defs/>
<g id="Layer 1" vectornator:layerName="Layer 1">
<path d="M140.949+336.705C136.708+336.705+133.267+340.199+133.267+344.503L133.267+360.098C133.267+364.402+136.708+367.896+140.949+367.896C145.189+367.896+148.631+364.402+148.631+360.098L148.631+344.503C148.631+340.199+145.189+336.705+140.949+336.705ZM102.538+336.705C98.2976+336.705+94.856+340.199+94.856+344.503L94.856+360.098C94.856+364.402+98.2976+367.896+102.538+367.896C106.779+367.896+110.22+364.402+110.22+360.098L110.22+344.503C110.22+340.199+106.779+336.705+102.538+336.705ZM64.1276+336.705C59.8871+336.705+56.4455+340.199+56.4455+344.503L56.4455+360.098C56.4455+364.402+59.8871+367.896+64.1276+367.896C68.3681+367.896+71.8097+364.402+71.8097+360.098L71.8097+344.503C71.8097+340.199+68.3681+336.705+64.1276+336.705ZM179.359+336.705C175.119+336.705+171.677+340.199+171.677+344.503L171.677+360.098C171.677+364.402+175.119+367.896+179.359+367.896C183.6+367.896+187.041+364.402+187.041+360.098L187.041+344.503C187.041+340.199+183.6+336.705+179.359+336.705ZM217.77+336.705C213.529+336.705+210.088+340.199+210.088+344.503L210.088+360.098C210.088+364.402+213.529+367.896+217.77+367.896C222.01+367.896+225.452+364.402+225.452+360.098L225.452+344.503C225.452+340.199+222.01+336.705+217.77+336.705ZM163.995+149.562L194.723+149.562C198.964+149.562+202.406+146.068+202.406+141.764C202.406+137.46+198.964+133.966+194.723+133.966L163.995+133.966C159.755+133.966+156.313+137.46+156.313+141.764C156.313+146.068+159.755+149.562+163.995+149.562ZM348.366+133.966L225.452+133.966C221.211+133.966+217.77+137.46+217.77+141.764C217.77+146.068+221.211+149.562+225.452+149.562L348.366+149.562C352.606+149.562+356.048+146.068+356.048+141.764C356.048+137.46+352.606+133.966+348.366+133.966ZM348.366+196.348L163.995+196.348C159.755+196.348+156.313+199.841+156.313+204.145C156.313+208.45+159.755+211.943+163.995+211.943L348.366+211.943C352.606+211.943+356.048+208.45+356.048+204.145C356.048+199.841+352.606+196.348+348.366+196.348ZM256.18+258.729L163.995+258.729C159.755+258.729+156.313+262.222+156.313+266.526C156.313+270.831+159.755+274.324+163.995+274.324L256.18+274.324C260.421+274.324+263.862+270.831+263.862+266.526C263.862+262.222+260.421+258.729+256.18+258.729ZM97.1069+162.872C98.6049+164.393+100.572+165.157+102.538+165.157C104.505+165.157+106.471+164.393+107.969+162.872L138.698+131.682C141.702+128.633+141.702+123.705+138.698+120.656C135.694+117.607+130.839+117.607+127.835+120.656L102.538+146.334L92.6052+136.251C89.6015+133.202+84.7464+133.202+81.7427+136.251C78.739+139.3+78.739+144.228+81.7427+147.277L97.1069+162.872ZM97.1069+225.253C98.6049+226.774+100.572+227.538+102.538+227.538C104.505+227.538+106.471+226.774+107.969+225.253L138.698+194.063C141.702+191.014+141.702+186.086+138.698+183.037C135.694+179.988+130.839+179.988+127.835+183.037L102.538+208.715L92.6052+198.632C89.6015+195.583+84.7464+195.583+81.7427+198.632C78.739+201.681+78.739+206.609+81.7427+209.658L97.1069+225.253ZM102.538+289.919C104.505+289.919+106.471+289.155+107.969+287.635L138.698+256.444C141.702+253.395+141.702+248.467+138.698+245.418C135.694+242.369+130.839+242.369+127.835+245.418L102.538+271.096L92.6052+261.013C89.6015+257.965+84.7464+257.965+81.7427+261.013C78.739+264.062+78.739+268.99+81.7427+272.039L97.1069+287.635C98.6049+289.155+100.572+289.919+102.538+289.919Z" opacity="1" fill="#4ea5ea"/>
<path d="M498.443+209.658L465.848+176.573C460.809+171.458+454.678+168.222+448.233+166.545L448.233+48.1924C448.233+35.2951+437.893+24.7995+425.187+24.7995L41.0813+24.7995C28.3751+24.7995+18.035+35.2951+18.035+48.1924L18.035+375.693C18.035+388.591+28.3751+399.086+41.0813+399.086L243.92+399.086L239.487+430.604C239.141+433.037+239.948+435.486+241.661+437.225C243.113+438.698+245.072+439.509+247.092+439.509C247.453+439.509+247.815+439.486+248.183+439.431L285.987+433.95L335.037+428.671C336.789+428.483+338.425+427.688+339.67+426.417L476.726+286.847L476.734+286.839L498.451+264.803C513.416+249.598+513.416+224.856+498.443+209.658ZM33.3992+48.1924C33.3992+43.8959+36.8484+40.3948+41.0813+40.3948L425.187+40.3948C429.42+40.3948+432.869+43.8959+432.869+48.1924L432.869+71.5854L33.3992+71.5854L33.3992+48.1924ZM250.549+342.819L245.886+383.491L41.0813+383.491C36.8484+383.491+33.3992+379.99+33.3992+375.693L33.3992+87.1807L432.869+87.1807L432.869+165.742C425.056+166.951+417.528+170.483+411.528+176.573L389.803+198.632C389.788+198.648+389.78+198.671+389.765+198.687L366.48+222.4C366.396+222.478+366.288+222.501+366.211+222.579C366.127+222.665+366.104+222.774+366.027+222.86L252.739+338.21C251.517+339.45+250.741+341.072+250.549+342.819ZM287.954+418.05L260.582+390.267L264.923+352.371L299.162+356.028L299.162+371.062C299.162+375.366+302.603+378.859+306.844+378.859L321.647+378.859L325.243+414.042L287.954+418.05ZM436.341+305.865C435.511+306.435+434.835+307.121+434.282+307.963L339.685+404.303L336.205+370.258C335.798+366.282+332.502+363.264+328.561+363.264L314.511+363.264L314.511+352.23L355.717+310.404C358.721+307.355+358.721+302.427+355.717+299.378C352.714+296.329+347.859+296.329+344.855+299.378L303.986+340.853L274.871+337.742L371.681+239.172L436.856+305.327L436.341+305.865ZM447.711+294.286L382.536+228.131L395.25+215.187L460.425+281.342L447.711+294.286ZM487.581+253.769L471.279+270.308L406.097+204.145L406.488+203.748L406.488+203.748L422.39+187.606C431.379+178.483+445.998+178.491+454.986+187.606L487.581+220.692C496.561+229.807+496.561+244.646+487.581+253.769Z" fill="#4ea5ea" opacity="1"/>
</g>
</svg>
